<svg width="217" height="110" viewBox="0 0 217 110" fill="none" xmlns="http://www.w3.org/2000/svg">
<path d="M78.0574 25.6662C91.5203 25.6662 104.941 31.3925 115.447 37.7036C124.619 43.225 126.771 45.2654 134.543 50.8561L148.823 60.9887C151.728 62.9266 161.722 69.0086 164.555 69.6687C151.68 88.8941 131.053 85.3408 112.5 77.4203C106.346 74.7922 102.069 71.9743 96.7313 68.7766L87.1442 62.0858C77.964 55.3437 73.2111 51.7813 63.2322 45.3106C61.5474 44.2196 59.8205 43.4329 58.0393 42.366C56.7282 41.5794 53.9283 40.1749 52.4395 39.8283C56.8578 31.4799 67.4877 25.6662 78.0574 25.6662ZM0.902344 55.8049C2.01446 55.0604 1.97227 54.7771 2.80108 53.7856C6.79747 48.9845 14.9379 44.6626 21.9904 44.6445C32.4817 44.6204 39.9862 48.6047 46.9151 52.2907C58.416 58.4058 69.5191 68.3395 79.9953 76.1726L89.2087 82.9327C103.977 92.7308 126.138 103.698 144.1 97.7368C151.783 95.1871 157.533 89.2588 161.337 82.4233C162.416 80.4884 165.707 73.005 165.761 70.5728C168.805 70.6421 189.387 82.3932 208.03 63.7163C209.962 61.7814 215.758 55.4703 216.394 53.0924C215.592 53.6288 212.34 58.1255 207.865 60.838C204.073 63.1346 200.87 64.2196 195.556 64.8043C185.152 65.9465 168.733 57.1792 160.466 51.1575C150.372 43.8097 142.301 37.2726 132.569 29.9278C121.189 21.3413 108.326 14.5842 94.3323 11.1936C82.9338 8.43891 71.1858 10.187 62.6143 17.7578C57.6354 22.155 54.0188 29.5661 51.9513 35.7265C51.6258 36.6939 51.2761 38.2189 50.9326 38.9272C47.0477 38.023 43.3225 35.5517 35.8632 35.3106C32.8494 35.2141 30.8873 35.0664 27.4636 35.6511C24.9866 36.0519 22.5743 36.7817 20.2906 37.8211C13.8077 40.835 9.13925 44.8042 4.72694 50.2865C3.7836 51.4528 1.25195 54.4968 0.902344 55.8049Z" fill="#A2CA00"/>
<path d="M16.2744 78.7111C17.8145 77.6804 18.0074 76.517 21.5728 75.2693C28.7639 72.7557 36.6421 76.2759 42.7543 78.7533L58.8393 88.8889C69.8942 98.027 85.3613 109.618 99.7706 109.465C103.815 109.422 110.319 106.716 112.127 104.04C109.677 104.609 109.37 105.468 104.873 105.848C102.763 106.023 98.5259 105.158 97.019 104.691C92.3204 103.229 88.5229 101.207 84.7164 98.91C67.8116 88.6991 46.1117 62.7346 25.4969 69.8533C23.5409 70.5284 21.2774 72.0715 19.9574 73.3555C18.8694 74.4224 16.6421 77.1409 16.2744 78.7141V78.7111Z" fill="#37ABE4"/>
<path d="M105.185 5.17175C107.764 4.56897 108.955 3.66481 112.418 3.66481C128.804 3.56837 145.995 21.3683 158.063 30.0723L166.366 35.3255C169.346 37.0721 172.531 38.4428 175.848 39.4063C183.256 41.516 191.2 41.7481 196.897 35.9916C198.147 34.7257 200.269 32.5407 200.739 30.7926C198.883 32.0344 198.449 33.1043 195.36 34.1531C187.273 36.8927 175.124 31.7179 168.536 27.7245C167.575 27.1428 166.912 26.6938 165.941 26.1C161.887 23.6257 156.996 19.6534 153.283 16.7571C145.468 10.651 135.263 3.4237 125.444 0.889038C120.796 -0.316509 114.895 -0.479258 110.308 1.55812C108.599 2.32063 106.155 3.72509 105.185 5.17476V5.17175Z" fill="#37ABE4"/>
<path d="M105.181 5.17139H104.88L105.13 5.52401L105.181 5.17139Z" fill="#303030"/>
<path d="M16.2711 78.71H15.9697L16.2199 79.0626L16.2711 78.71Z" fill="#303030"/>
<path d="M200.725 30.7896H201.026L200.776 30.4399L200.725 30.7896Z" fill="#303030"/>
<path d="M216.698 52.7896H217L216.749 52.4399L216.698 52.7896Z" fill="#303030"/>
<path d="M0.301387 56.7087H0L0.250152 57.0614L0.301387 56.7087Z" fill="#303030"/>
</svg>
