<svg width="83" height="52" viewBox="0 0 83 52" fill="none" xmlns="http://www.w3.org/2000/svg">
<path d="M60.696 48.4636C60.0301 48.4636 60.3031 48.4332 59.9102 48.169C59.9102 47.563 60.2049 44.4366 61.1871 44.4366C61.7263 44.4366 62.0711 44.3561 62.0711 45.4188C62.0442 46.0407 61.9325 46.656 61.7391 47.2477C61.6393 47.4961 61.5156 47.7343 61.3698 47.9588C61.247 48.1434 60.9592 48.4636 60.696 48.4636ZM57.6512 48.4636C56.834 48.4636 56.7672 48.0904 56.7672 47.285C56.7672 44.0045 59.0096 43.8738 58.875 45.2676C58.8072 45.9748 58.5499 48.4636 57.6512 48.4636ZM60.696 44.0438C60.696 42.9634 61.1998 41.7336 61.2853 40.7043H59.7138C59.703 41.1866 59.5174 41.9409 59.427 42.3819C59.3288 42.8956 59.1245 43.6018 59.1245 44.142H58.928C58.7316 43.4161 57.2986 43.5291 56.4883 44.0595C55.0562 44.9955 54.6113 47.9067 55.6298 48.8153C56.4667 49.5617 57.3614 49.27 58.1423 48.8565C58.1079 49.27 57.94 50.0175 57.8565 50.4369C57.7582 50.9162 57.5913 51.5359 57.553 51.9995C57.9684 51.9995 58.0991 51.9278 58.3476 51.921C58.6786 51.9111 58.6746 51.9995 59.1245 51.9995C59.1333 51.6066 59.3209 50.7649 59.3936 50.4025C59.5007 49.8495 59.5959 49.3653 59.7138 48.8565C60.1695 49.0981 60.2314 49.2789 60.9906 49.2582C62.347 49.2209 63.287 47.9254 63.5679 46.8175C63.9323 45.3805 63.8626 43.6882 62.072 43.642C61.079 43.6165 61.2863 43.8866 60.697 44.0438H60.696Z" fill="#303030"/>
<path d="M33.7832 49.1513C35.8988 49.1513 35.3901 49.6955 35.9843 46.6379L36.1454 45.915C36.2249 45.696 36.1689 45.8237 36.2387 45.7136C36.4675 46.6958 37.6373 48.4088 37.8102 49.1513H39.7746C39.7628 48.6317 39.5438 48.3931 39.3247 48.0297L37.6138 44.7315C37.9084 44.2855 39.5555 42.8486 40.1969 42.3054L40.8422 41.7721C41.1005 41.5049 40.9188 41.8566 41.0514 41.4902C40.6703 41.4991 40.7214 41.56 40.4621 41.56C40.1871 41.56 40.2657 41.4902 39.8728 41.4902C39.8011 41.4902 36.8143 44.5095 36.3369 44.8297C36.4656 44.2767 36.9262 42.0019 36.9262 41.4902C36.5383 41.4902 36.3624 41.56 36.1405 41.56C35.9185 41.56 35.6494 41.4902 35.2565 41.4902L34.1496 47.1604C34.0602 47.679 33.795 48.5993 33.7832 49.1513Z" fill="#303030"/>
<path d="M73.1709 48.4641C72.3753 48.4641 72.4834 47.9092 72.4834 47.089C72.4834 46.2689 73.0904 44.4371 73.7602 44.4371C74.3849 44.4371 74.6442 44.388 74.6442 45.5175C74.6442 46.5685 74.1531 48.4641 73.1709 48.4641ZM72.9745 44.4371C72.9745 44.0491 73.0049 44.0383 73.0727 43.7496H71.5012L69.9297 52C70.3452 52 70.4758 51.9283 70.7243 51.9214C71.0553 51.9116 71.0514 52 71.5012 52L72.1887 48.6605C72.3154 48.745 73.2574 49.9168 74.7601 48.8747C76.8286 47.4397 77.1459 43.0385 74.0912 43.6877C73.4656 43.8203 73.3094 44.1925 72.9745 44.4371Z" fill="#303030"/>
<path d="M8.14944 48.4632C7.39806 48.4632 7.4619 47.9848 7.4619 47.2845C7.4619 46.3917 8.0247 44.4362 8.73876 44.4362C9.40468 44.4362 9.62273 44.4293 9.62273 45.4184C9.62273 46.5508 9.16896 48.4632 8.14944 48.4632ZM7.953 44.4362C7.953 44.0482 7.98345 44.0374 8.05122 43.7486H6.47971C6.464 44.444 4.99562 50.9432 4.9082 51.9991C5.32367 51.9991 5.4543 51.9274 5.7028 51.9205C6.0338 51.9107 6.02987 51.9991 6.47971 51.9991L7.16725 48.6596C7.83416 49.1055 7.36958 49.2489 8.64054 49.2489C10.0971 49.2489 11.2925 47.3936 11.2925 45.9095C11.2925 44.4254 11.0636 43.6504 9.42629 43.6504C8.54232 43.6504 8.4549 44.1003 7.953 44.4362Z" fill="#303030"/>
<path d="M46.1602 49.1525H47.1423C47.2111 48.3255 48.2228 46.3719 48.4192 45.5184C48.4358 45.5375 48.4464 45.5611 48.4496 45.5861L48.9407 48.3363C49.0606 49.2576 48.8582 49.1495 50.1901 49.1495C50.5083 49.1495 50.4916 48.8755 50.8099 48.296C51.1497 47.6753 52.0396 45.816 52.4491 45.5154L52.3509 49.1495H54.0206C54.0206 48.189 53.8242 47.081 53.8242 45.9083V43.7475C52.2684 43.7475 52.5817 43.6237 52.1221 44.5008L50.4818 47.1881C50.3561 46.6479 50.2726 46.1283 50.1734 45.5321C50.0958 45.0636 49.9033 44.2337 49.8925 43.7504C47.9998 43.7504 48.9427 43.3517 47.437 46.4023L46.1602 49.1525Z" fill="#303030"/>
<path d="M17.1855 49.1518C18.5341 49.1518 18.1255 49.4415 19.4583 47.7905C19.9023 47.2414 20.6517 46.2858 21.2125 45.9106C21.1428 46.7454 20.6232 48.366 20.6232 49.1518H22.1947L22.6937 46.5077C22.841 45.7711 23.1769 44.5384 23.1769 43.7497C21.9836 43.7497 22.1132 43.6456 21.796 44.0385C21.684 44.177 21.5868 44.3076 21.4522 44.4805L20.745 45.3448C20.3217 45.8202 19.7402 46.5647 19.2491 46.8937C19.259 46.4449 19.4505 45.7377 19.5359 45.3144C19.6342 44.839 19.8001 44.2104 19.8385 43.7507C18.5351 43.7507 18.3151 43.5661 18.1638 44.0405C18.1176 44.1839 18.0558 44.6602 18.0135 44.8724L17.1855 49.1518Z" fill="#303030"/>
<path d="M42.1312 47.8739C42.1312 43.4943 44.5867 43.6504 44.5867 45.0255C44.5867 46.1521 44.4522 47.1637 43.801 48.0703C42.9229 49.3098 42.1312 48.5673 42.1312 47.8739ZM40.3633 47.1863C40.3633 47.7314 40.6795 48.3453 40.9732 48.639C42.2599 49.9257 46.2564 49.3864 46.2564 45.5166C46.2564 44.4902 45.3008 43.6504 44.2921 43.6504C43.1674 43.6504 42.4308 43.6936 41.5508 44.5432C40.877 45.1944 40.3633 46.3259 40.3633 47.1863Z" fill="#303030"/>
<path d="M66.0004 47.8744C66.0004 46.7616 66.0721 45.6399 66.7252 44.7687C67.5385 43.6883 68.4559 44.2285 68.4559 45.0261C68.4559 46.1527 68.3213 47.1643 67.6701 48.0709C66.792 49.3104 66.0004 48.5679 66.0004 47.8744ZM64.2324 47.1869C64.2472 47.7304 64.4643 48.2488 64.8414 48.6405C66.2705 49.9763 70.1256 49.2829 70.1256 45.5172C70.1256 44.4908 69.1699 43.651 68.1612 43.651C67.2242 43.651 66.9826 43.5881 66.1605 44.0075C65.9839 44.0814 65.8209 44.1844 65.6782 44.312C65.6114 44.367 65.5397 44.4309 65.47 44.4967L65.3718 44.5949C64.7314 45.2372 64.2344 46.3501 64.2344 47.1898L64.2324 47.1869Z" fill="#303030"/>
<path d="M0.782227 42.4724L2.84483 42.3742L1.56798 49.1513H3.33593C3.33593 48.5983 3.53237 47.9727 3.61782 47.4688L4.61278 42.3742C5.40639 42.3742 5.89749 42.4724 6.57717 42.4724C6.57717 41.9902 6.62235 41.8055 6.7736 41.4902H0.978665C0.985235 41.828 0.918204 42.1631 0.782227 42.4724Z" fill="#303030"/>
<path d="M15.3994 45.9072H13.7464C13.7986 45.4947 13.9372 45.0977 14.153 44.7423C14.2411 44.5742 14.3652 44.4277 14.5164 44.3131C14.7247 44.1707 14.9005 44.1304 15.1215 44.2375C15.4034 44.3357 15.2531 44.1501 15.4053 44.5429C15.588 45.0114 15.4662 45.4465 15.3994 45.9042V45.9072ZM11.8802 46.7912C11.8802 47.4915 11.8468 48.1515 12.4401 48.6868C13.3702 49.5246 15.7402 49.4794 16.2706 48.3224C16.3384 48.1721 16.2795 48.3509 16.3109 48.2124C16.3109 48.2016 16.4533 47.9394 16.0447 48.0965C15.756 48.2075 14.6009 48.8469 13.9163 48.1947C13.4517 47.7606 13.55 47.131 13.55 46.4995H16.8894C16.9336 45.9632 16.9876 46.2313 16.9876 45.3208C16.9876 42.5235 11.8802 43.3073 11.8802 46.7941V46.7912Z" fill="#303030"/>
<path d="M25.9269 45.4182C25.9466 46.3022 26.3002 47.4808 26.3198 48.3648H24.3554C24.4861 47.802 24.8465 47.3502 25.1088 46.8591C25.2659 46.5644 25.3268 46.4426 25.4928 46.1627L25.9269 45.4182ZM22.4893 49.4452C22.9126 49.347 23.0275 49.1506 23.5697 49.1506H27.5967C28.3824 49.1506 28.4325 50.1269 28.5789 48.3648H27.9895C27.9895 47.6468 27.7518 46.8051 27.6379 46.0645L27.302 43.7485H26.0252C25.9269 44.1767 23.6944 47.9533 23.5382 48.1369C23.0963 48.6595 23.0128 48.1006 22.7387 48.5161C22.7201 48.5445 22.5845 49.2468 22.4893 49.4452Z" fill="#303030"/>
<path d="M76.9043 44.5342C77.5005 44.5342 77.9464 44.436 78.6722 44.436C78.4139 44.9743 77.9199 48.6712 77.6901 49.1505H79.3598C79.3598 48.2666 80.1671 45.3534 80.2438 44.436C80.5197 44.436 80.8537 44.4193 81.1228 44.4409C81.5019 44.4724 81.4577 44.5342 81.9135 44.5342C81.9127 44.2601 81.9803 43.99 82.1099 43.7485H77.1007C77.1014 44.0226 77.0339 44.2927 76.9043 44.5342Z" fill="#303030"/>
<path d="M18.7363 42.2602C19.3256 43.1245 20.076 43.2591 21.014 43.2591C22.0581 43.2591 22.6032 42.7297 23.2731 42.3751C23.2024 42.0706 23.1474 42.0903 23.0766 41.7858C22.3685 41.9744 22.4706 42.5716 20.7194 42.5716C19.9002 42.5716 19.6183 42.1011 19.1479 41.7858L18.7363 42.2602Z" fill="#303030"/>
<path d="M31.526 8.36407C35.9134 8.36407 40.2871 10.2302 43.7111 12.2869C46.6999 14.0863 47.4012 14.7513 49.9342 16.5732L54.5879 19.8754C55.5347 20.5069 58.7917 22.489 59.7149 22.7041C55.519 28.9695 48.7969 27.8115 42.7505 25.2303C40.7448 24.3738 39.3511 23.4555 37.6116 22.4134L34.4873 20.2329C31.4955 18.0357 29.9466 16.8748 26.6946 14.766C26.1455 14.4104 25.5827 14.1541 25.0022 13.8064C24.575 13.55 23.6625 13.0923 23.1773 12.9794C24.6172 10.2587 28.0814 8.36407 31.526 8.36407ZM6.38184 18.186C6.74427 17.9434 6.73051 17.8511 7.00062 17.5279C8.30301 15.9633 10.9559 14.5548 13.2542 14.5489C16.6733 14.5411 19.1189 15.8395 21.377 17.0408C25.125 19.0336 28.7434 22.2709 32.1575 24.8237L35.1601 27.0267C39.9728 30.2198 47.1949 33.794 53.0488 31.8512C55.5524 31.0203 57.4264 29.0883 58.6659 26.8607C59.0176 26.2302 60.0901 23.7914 60.1078 22.9987C61.0998 23.0213 67.8072 26.8509 73.883 20.7643C74.5126 20.1337 76.4014 18.077 76.6086 17.302C76.3474 17.4769 75.2876 18.9423 73.829 19.8263C72.5934 20.5747 71.5494 20.9283 69.8177 21.1188C66.4272 21.4911 61.0762 18.6339 58.3821 16.6715C55.0927 14.2769 52.4624 12.1465 49.2909 9.75289C45.5821 6.95462 41.3901 4.75255 36.8298 3.64758C33.1152 2.74985 29.2866 3.31953 26.4932 5.78679C24.8706 7.21981 23.692 9.63503 23.0182 11.6426C22.9121 11.9579 22.7982 12.4549 22.6862 12.6857C21.4202 12.3911 20.2062 11.5857 17.7753 11.5071C16.7931 11.4757 16.1537 11.4275 15.0379 11.6181C14.2307 11.7487 13.4445 11.9865 12.7003 12.3253C10.5876 13.3074 9.06617 14.601 7.62824 16.3876C7.32081 16.7677 6.49577 17.7597 6.38184 18.186Z" fill="#A2CA00"/>
<path d="M11.3916 25.651C11.8935 25.3151 11.9564 24.936 13.1183 24.5293C15.4618 23.7102 18.0293 24.8574 20.0211 25.6648L25.2631 28.9679C28.8658 31.9459 33.9064 35.7234 38.6023 35.6733C39.9204 35.6596 42.0399 34.7775 42.6293 33.9054C41.8307 34.091 41.7306 34.3709 40.2651 34.4947C39.5776 34.5516 38.1966 34.2697 37.7055 34.1175C36.1743 33.6411 34.9367 32.9821 33.6962 32.2337C28.1871 28.906 21.1153 20.4444 14.3971 22.7643C13.7597 22.9844 13.022 23.4872 12.5918 23.9056C12.2373 24.2533 11.5114 25.1393 11.3916 25.652V25.651Z" fill="#37ABE4"/>
<path d="M40.3662 1.68543C41.207 1.48899 41.5949 1.19433 42.7235 1.19433C48.0637 1.1629 53.6661 6.96373 57.5988 9.8003L60.3047 11.5123C61.2759 12.0815 62.3137 12.5282 63.3947 12.8422C65.8089 13.5297 68.398 13.6053 70.2543 11.7293C70.6619 11.3168 71.3534 10.6047 71.5066 10.035C70.9016 10.4397 70.7602 10.7884 69.7534 11.1302C67.1182 12.023 63.159 10.3366 61.0119 9.03517C60.6986 8.84561 60.4825 8.69926 60.1662 8.50577C58.8452 7.69939 57.2511 6.40486 56.041 5.46097C53.4942 3.47105 50.1685 1.11575 46.9685 0.28973C45.454 -0.103147 43.5308 -0.156186 42.0359 0.507776C41.479 0.756271 40.6825 1.21397 40.3662 1.68641V1.68543Z" fill="#37ABE4"/>
<path d="M40.3648 1.68507H40.2666L40.3481 1.79999L40.3648 1.68507Z" fill="#303030"/>
<path d="M11.3902 25.6504H11.292L11.3735 25.7653L11.3902 25.6504Z" fill="#303030"/>
<path d="M71.502 10.0338H71.6002L71.5186 9.91985L71.502 10.0338Z" fill="#303030"/>
<path d="M76.708 17.2036H76.8062L76.7247 17.0897L76.708 17.2036Z" fill="#303030"/>
<path d="M6.18611 18.4806H6.08789L6.16941 18.5955L6.18611 18.4806Z" fill="#303030"/>
</svg>
